<svg width="71" height="64" viewBox="0 0 71 64" fill="none" xmlns="http://www.w3.org/2000/svg">
<path d="M70.974 63.5051L45.2608 0.229464C45.2333 0.161812 45.1854 0.103728 45.1234 0.0628054C45.0614 0.0218827 44.9881 5.72241e-07 44.9131 7.08973e-10H26.2603C26.1854 -4.54102e-06 26.1122 0.021812 26.0503 0.0625862C25.9883 0.10336 25.9405 0.161234 25.9129 0.228697L0.0263256 63.5043C0.00385065 63.5592 -0.00442873 63.6187 0.00223944 63.6774C0.00890761 63.7362 0.0302866 63.7925 0.0645468 63.8414C0.098807 63.8902 0.14489 63.9303 0.198773 63.9579C0.252656 63.9856 0.312736 64 0.373709 64H20.543C20.6076 64 20.6711 63.9838 20.7273 63.9529C20.7835 63.922 20.8305 63.8775 20.8637 63.8238C20.8969 63.77 20.9151 63.7089 20.9166 63.6462C20.9181 63.5836 20.9028 63.5217 20.8723 63.4665L15.0558 52.9638C15.0253 52.9087 15.01 52.8468 15.0115 52.7841C15.013 52.7215 15.0313 52.6603 15.0644 52.6066C15.0976 52.5528 15.1446 52.5084 15.2008 52.4775C15.257 52.4466 15.3205 52.4303 15.3851 52.4303H55.5475C55.6116 52.4303 55.6747 52.4463 55.7305 52.4767C55.7864 52.5072 55.8333 52.551 55.8666 52.6041C55.9 52.6571 55.9187 52.7176 55.921 52.7797C55.9232 52.8417 55.909 52.9034 55.8796 52.9586L50.2854 63.4718C50.2561 63.527 50.2418 63.5886 50.2441 63.6507C50.2464 63.7128 50.2651 63.7733 50.2984 63.8263C50.3318 63.8794 50.3787 63.9232 50.4345 63.9536C50.4904 63.9841 50.5535 64 50.6175 64H70.6263C70.6872 64 70.7472 63.9856 70.8011 63.958C70.8549 63.9304 70.9009 63.8905 70.9352 63.8417C70.9695 63.7929 70.9909 63.7367 70.9977 63.678C71.0045 63.6194 70.9963 63.56 70.974 63.5051ZM23.1796 50.823L35.1483 17.8157C35.1738 17.7454 35.221 17.6844 35.2836 17.6411C35.3461 17.5978 35.4209 17.5742 35.4978 17.5736C35.5747 17.573 35.6499 17.5954 35.7132 17.6377C35.7764 17.6801 35.8246 17.7403 35.8513 17.8102L45.7859 43.8565C45.8033 43.9022 45.8111 43.9509 45.8087 43.9995C45.8063 44.0481 45.7938 44.0958 45.7719 44.1396C45.7501 44.1835 45.7193 44.2227 45.6815 44.2547C45.6437 44.2868 45.5996 44.3111 45.5519 44.3263L23.6486 51.2873C23.5823 51.3084 23.5112 51.3111 23.4435 51.295C23.3757 51.279 23.3139 51.2449 23.2651 51.1966C23.2163 51.1483 23.1824 51.0877 23.1673 51.0216C23.1522 50.9556 23.1565 50.8868 23.1796 50.823Z" fill="#FEFEFE"/>
<path d="M70.974 63.5051L45.2608 0.229464C45.2333 0.161812 45.1854 0.103728 45.1234 0.0628054C45.0614 0.0218827 44.9881 5.72241e-07 44.9131 7.08973e-10H26.2603C26.1854 -4.54102e-06 26.1122 0.021812 26.0503 0.0625862C25.9883 0.10336 25.9405 0.161234 25.9129 0.228697L0.0263256 63.5043C0.00385065 63.5592 -0.00442873 63.6187 0.00223944 63.6774C0.00890761 63.7362 0.0302866 63.7925 0.0645468 63.8414C0.098807 63.8902 0.14489 63.9303 0.198773 63.9579C0.252656 63.9856 0.312736 64 0.373709 64H20.543C20.6076 64 20.6711 63.9838 20.7273 63.9529C20.7835 63.922 20.8305 63.8775 20.8637 63.8238C20.8969 63.77 20.9151 63.7089 20.9166 63.6462C20.9181 63.5836 20.9028 63.5217 20.8723 63.4665L15.0558 52.9638C15.0253 52.9087 15.01 52.8468 15.0115 52.7841C15.013 52.7215 15.0313 52.6603 15.0644 52.6066C15.0976 52.5528 15.1446 52.5084 15.2008 52.4775C15.257 52.4466 15.3205 52.4303 15.3851 52.4303H55.5475C55.6116 52.4303 55.6747 52.4463 55.7305 52.4767C55.7864 52.5072 55.8333 52.551 55.8666 52.6041C55.9 52.6571 55.9187 52.7176 55.921 52.7797C55.9232 52.8417 55.909 52.9034 55.8796 52.9586L50.2854 63.4718C50.2561 63.527 50.2418 63.5886 50.2441 63.6507C50.2464 63.7128 50.2651 63.7733 50.2984 63.8263C50.3318 63.8794 50.3787 63.9232 50.4345 63.9536C50.4904 63.9841 50.5535 64 50.6175 64H70.6263C70.6872 64 70.7472 63.9856 70.8011 63.958C70.8549 63.9304 70.9009 63.8905 70.9352 63.8417C70.9695 63.7929 70.9909 63.7367 70.9977 63.678C71.0045 63.6194 70.9963 63.56 70.974 63.5051ZM23.1796 50.823L35.1483 17.8157C35.1738 17.7454 35.221 17.6844 35.2836 17.6411C35.3461 17.5978 35.4209 17.5742 35.4978 17.5736C35.5747 17.573 35.6499 17.5954 35.7132 17.6377C35.7764 17.6801 35.8246 17.7403 35.8513 17.8102L45.7859 43.8565C45.8033 43.9022 45.8111 43.9509 45.8087 43.9995C45.8063 44.0481 45.7938 44.0958 45.7719 44.1396C45.7501 44.1835 45.7193 44.2227 45.6815 44.2547C45.6437 44.2868 45.5996 44.3111 45.5519 44.3263L23.6486 51.2873C23.5823 51.3084 23.5112 51.3111 23.4435 51.295C23.3757 51.279 23.3139 51.2449 23.2651 51.1966C23.2163 51.1483 23.1824 51.0877 23.1673 51.0216C23.1522 50.9556 23.1565 50.8868 23.1796 50.823Z" fill="#0BA0F2"/>
</svg>
