<svg width="24" height="26" viewBox="0 0 24 26" fill="none" xmlns="http://www.w3.org/2000/svg">
<path d="M11.7704 13.4014C11.3075 13.4031 10.858 13.5447 10.491 13.8045C10.124 14.0643 9.85988 14.4279 9.73914 14.8395C9.61841 15.251 9.64778 15.6877 9.82276 16.0823C9.99773 16.477 10.3086 16.8078 10.7076 17.0239V19.799H12.8591V17.0239C13.1748 16.8519 13.4367 16.6077 13.6196 16.3149C13.8024 16.0221 13.8998 15.6907 13.9024 15.3529V15.3529C13.9024 15.0956 13.8472 14.8409 13.7399 14.6033C13.6326 14.3658 13.4753 14.1501 13.2772 13.9687C13.079 13.7874 12.8439 13.6439 12.5853 13.5465C12.3267 13.4491 12.0498 13.3998 11.7704 13.4014V13.4014Z" stroke="#0D99E6" stroke-width="2" stroke-linecap="round" stroke-linejoin="round"/>
<path d="M19.7347 8.91943H3.7995C2.25338 8.91943 1 10.0737 1 11.4976V21.6967C1 23.1205 2.25338 24.2748 3.7995 24.2748H19.7347C21.2808 24.2748 22.5342 23.1205 22.5342 21.6967V11.4976C22.5342 10.0737 21.2808 8.91943 19.7347 8.91943Z" stroke="#0D99E6" stroke-width="2" stroke-linecap="round" stroke-linejoin="round"/>
<path d="M4.86914 8.91938V7.36176C4.86914 5.67452 5.59695 4.05638 6.89246 2.86332C8.18797 1.67026 9.94505 1 11.7772 1C13.6093 1 15.3664 1.67026 16.6619 2.86332C17.9574 4.05638 18.6852 5.67452 18.6852 7.36176V8.91938" stroke="#0D99E6" stroke-width="2" stroke-linecap="round" stroke-linejoin="round"/>
</svg>
