<svg width="28" height="27" viewBox="0 0 28 27" fill="none" xmlns="http://www.w3.org/2000/svg">
<path d="M14 2.25C12.8463 2.25 11.7185 2.5799 10.7592 3.19798C9.79989 3.81607 9.05221 4.69457 8.6107 5.72241C8.16919 6.75024 8.05367 7.88124 8.27875 8.97238C8.50383 10.0635 9.0594 11.0658 9.87521 11.8525C10.691 12.6391 11.7304 13.1749 12.862 13.3919C13.9935 13.609 15.1664 13.4976 16.2323 13.0718C17.2982 12.6461 18.2093 11.9251 18.8502 11.0001C19.4912 10.0751 19.8333 8.98752 19.8333 7.875C19.8333 6.38316 19.2188 4.95242 18.1248 3.89752C17.0308 2.84263 15.5471 2.25 14 2.25ZM14 11.25C13.3078 11.25 12.6311 11.0521 12.0555 10.6812C11.4799 10.3104 11.0313 9.78326 10.7664 9.16656C10.5015 8.54986 10.4322 7.87126 10.5673 7.21657C10.7023 6.56188 11.0356 5.96052 11.5251 5.48851C12.0146 5.01651 12.6383 4.69507 13.3172 4.56485C13.9961 4.43462 14.6999 4.50146 15.3394 4.75691C15.9789 5.01235 16.5256 5.44493 16.9101 5.99995C17.2947 6.55497 17.5 7.20749 17.5 7.875C17.5 8.7701 17.1313 9.62855 16.4749 10.2615C15.8185 10.8944 14.9283 11.25 14 11.25ZM24.5 23.625V22.5C24.5 20.4114 23.6396 18.4084 22.108 16.9315C20.5765 15.4547 18.4993 14.625 16.3333 14.625H11.6667C9.50073 14.625 7.42351 15.4547 5.89196 16.9315C4.36041 18.4084 3.5 20.4114 3.5 22.5V23.625H5.83333V22.5C5.83333 21.0082 6.44791 19.5774 7.54188 18.5225C8.63584 17.4676 10.1196 16.875 11.6667 16.875H16.3333C17.8804 16.875 19.3642 17.4676 20.4581 18.5225C21.5521 19.5774 22.1667 21.0082 22.1667 22.5V23.625H24.5Z" fill="#0D99E6"/>
</svg>
